# xmcd
#
# Track frame offsets: 
#        150
#        10800
#        21670
#        31432
#        41229
#        53910
#        65560
#        79735
#        91176
#        103704
#        116914
#        127798
#        140939
#        156194
#        168993
#        183248
#        196807
#        210602
#        221329
#        235417
#        249825
#        259594
#        272616
#        287899
#        298783
#        313400
#        325280
#        337647
#
# Disc length: 4514 seconds
#
# Revision: 0
# Processed by: cddbd v1.5.2PL0 Copyright (c) Steve Scherf et al.
# Submitted via: ExactAudioCopy v0.95b4
#
DISCID=a211a01c
DTITLE=Various Artist - Music From Life's Other Side
DYEAR=2006
DGENRE=Country
TTITLE0=Larry Lee Phillipson - The Interstate Is Coming Through My Out
TTITLE0=house
TTITLE1=Russ Mann - Seat Belts On The Bar Stools
TTITLE2='Smiley Joe' Omohundro - I Don't Drink To Get Drunk (I Just Li
TTITLE2=ke To Drink)
TTITLE3=James D. Burhus - Don't Monkey With My Widder
TTITLE4=Larry Steele - Little Jimmy
TTITLE5=Ersle Standridge - Satan's Call To Khruschev
TTITLE6=Katie Lee - Insane
TTITLE7=Sidney Ester - U.F.O. On Farm Road 318
TTITLE8=Warren Farren - Chicago 7
TTITLE9=Roger Chase recitation by Al Gliva - The Lifer
TTITLE10=Larry Steele - Why Don't They Want Me?
TTITLE11=Boyd's Solo Band - Hillbilly Polka
TTITLE12=Donald Atkins - Narco County Jail
TTITLE13=Lefty Combs - Fireball Robert's Last Race
TTITLE14=Rocky Rhodes - Money Won't Buy Back Our Mommy
TTITLE15=L. 'Pop' Smith - Pictures From Life's Other Side
TTITLE16=Lee Moore - The Cat Came Back
TTITLE17=Donald Atkins - I'm Still In Love With You
TTITLE18=Jimmie Holt - Little Rosa
TTITLE19=Joyce Paul - A Fat Family
TTITLE20=Gene Snowden - Cool Drink Of Water
TTITLE21=Isaac Laughrun - Driftwood
TTITLE22=Boyd's Solo Band - Hillbilly Auctioneer
TTITLE23=Skid-Row Joe - Hacksaw Bill
TTITLE24=Ralph Debord - Filthy Sea Of Sin
TTITLE25=Webb Foley - Adios You-All
TTITLE26=Travis Hobbs - Old Lobo The Killer
TTITLE27=Bowen Weems - Weems Wild Call (Dual Tone Varmint Calling) (ex
TTITLE27=cerpt)
EXTD=
EXTT0=
EXTT1=
EXTT2=
EXTT3=
EXTT4=
EXTT5=
EXTT6=
EXTT7=
EXTT8=
EXTT9=
EXTT10=
EXTT11=
EXTT12=
EXTT13=
EXTT14=
EXTT15=
EXTT16=
EXTT17=
EXTT18=
EXTT19=
EXTT20=
EXTT21=
EXTT22=
EXTT23=
EXTT24=
EXTT25=
EXTT26=
EXTT27=
PLAYORDER=
